<mxfile host="app.diagrams.net" modified="2022-08-16T05:07:45.017Z" agent="5.0 (Windows NT 10.0; Win64; x64) AppleWebKit/537.36 (KHTML, like Gecko) Chrome/97.0.4692.71 Safari/537.36" etag="0toQVeBZIeiDE-eoYvxX" version="20.2.3" type="github">
  <diagram id="6dxaCNTXmbiNEFDVWDcm" name="CBO">
    <mxGraphModel dx="1422" dy="1931" grid="1" gridSize="10" guides="1" tooltips="1" connect="1" arrows="1" fold="1" page="1" pageScale="1" pageWidth="827" pageHeight="1169" math="0" shadow="0">
      <root>
        <mxCell id="0" />
        <mxCell id="1" parent="0" />
        <mxCell id="krKJE5jMEVTbC_TIRUub-3" style="edgeStyle=orthogonalEdgeStyle;rounded=0;orthogonalLoop=1;jettySize=auto;html=1;entryX=0.5;entryY=0;entryDx=0;entryDy=0;fontColor=#000000;" edge="1" parent="1" source="krKJE5jMEVTbC_TIRUub-1" target="krKJE5jMEVTbC_TIRUub-2">
          <mxGeometry relative="1" as="geometry" />
        </mxCell>
        <mxCell id="krKJE5jMEVTbC_TIRUub-33" style="edgeStyle=orthogonalEdgeStyle;rounded=0;orthogonalLoop=1;jettySize=auto;html=1;exitX=0;exitY=0.5;exitDx=0;exitDy=0;entryX=0;entryY=0;entryDx=265;entryDy=15;entryPerimeter=0;dashed=1;fontSize=13;fontColor=#000000;endArrow=none;endFill=0;" edge="1" parent="1" source="krKJE5jMEVTbC_TIRUub-1" target="krKJE5jMEVTbC_TIRUub-32">
          <mxGeometry relative="1" as="geometry" />
        </mxCell>
        <mxCell id="krKJE5jMEVTbC_TIRUub-36" style="edgeStyle=orthogonalEdgeStyle;rounded=0;orthogonalLoop=1;jettySize=auto;html=1;exitX=1;exitY=0.5;exitDx=0;exitDy=0;entryX=0;entryY=0.5;entryDx=0;entryDy=0;fontSize=13;fontColor=#000000;startArrow=none;startFill=0;endArrow=classic;endFill=1;" edge="1" parent="1" source="krKJE5jMEVTbC_TIRUub-1" target="krKJE5jMEVTbC_TIRUub-35">
          <mxGeometry relative="1" as="geometry" />
        </mxCell>
        <mxCell id="krKJE5jMEVTbC_TIRUub-1" value="&lt;div style=&quot;font-family: Consolas, &amp;quot;Courier New&amp;quot;, monospace; font-size: 14px; line-height: 19px;&quot;&gt;&lt;span style=&quot;font-size: 13px; text-align: left;&quot;&gt;compute_stats&lt;/span&gt;&lt;/div&gt;" style="rounded=1;whiteSpace=wrap;html=1;" vertex="1" parent="1">
          <mxGeometry x="520" y="320" width="200" height="40" as="geometry" />
        </mxCell>
        <mxCell id="krKJE5jMEVTbC_TIRUub-2" value="&lt;span style=&quot;font-family: Consolas, &amp;quot;Courier New&amp;quot;, monospace; font-size: 14px; background-color: initial;&quot;&gt;analyze_mcv_list&lt;/span&gt;" style="rounded=1;whiteSpace=wrap;html=1;" vertex="1" parent="1">
          <mxGeometry x="800" y="400" width="200" height="40" as="geometry" />
        </mxCell>
        <mxCell id="krKJE5jMEVTbC_TIRUub-9" style="edgeStyle=orthogonalEdgeStyle;rounded=0;orthogonalLoop=1;jettySize=auto;html=1;entryX=0.5;entryY=0;entryDx=0;entryDy=0;fontColor=#000000;" edge="1" parent="1" source="krKJE5jMEVTbC_TIRUub-4" target="krKJE5jMEVTbC_TIRUub-1">
          <mxGeometry relative="1" as="geometry" />
        </mxCell>
        <mxCell id="krKJE5jMEVTbC_TIRUub-24" style="edgeStyle=orthogonalEdgeStyle;rounded=0;orthogonalLoop=1;jettySize=auto;html=1;dashed=1;fontSize=13;fontColor=#000000;endArrow=none;endFill=0;" edge="1" parent="1" source="krKJE5jMEVTbC_TIRUub-4" target="krKJE5jMEVTbC_TIRUub-31">
          <mxGeometry relative="1" as="geometry">
            <mxPoint x="480" y="260" as="targetPoint" />
          </mxGeometry>
        </mxCell>
        <mxCell id="krKJE5jMEVTbC_TIRUub-38" style="edgeStyle=orthogonalEdgeStyle;rounded=0;orthogonalLoop=1;jettySize=auto;html=1;exitX=1;exitY=0.5;exitDx=0;exitDy=0;entryX=0;entryY=0.5;entryDx=0;entryDy=0;fontSize=13;fontColor=#000000;startArrow=none;startFill=0;endArrow=classic;endFill=1;" edge="1" parent="1" source="krKJE5jMEVTbC_TIRUub-4" target="krKJE5jMEVTbC_TIRUub-37">
          <mxGeometry relative="1" as="geometry" />
        </mxCell>
        <mxCell id="krKJE5jMEVTbC_TIRUub-4" value="&lt;div style=&quot;font-family: Consolas, &amp;quot;Courier New&amp;quot;, monospace; font-size: 14px; line-height: 19px;&quot;&gt;&lt;div style=&quot;line-height: 19px;&quot;&gt;acquirefunc&lt;/div&gt;&lt;/div&gt;" style="rounded=1;whiteSpace=wrap;html=1;" vertex="1" parent="1">
          <mxGeometry x="520" y="239" width="200" height="40" as="geometry" />
        </mxCell>
        <mxCell id="krKJE5jMEVTbC_TIRUub-20" style="edgeStyle=orthogonalEdgeStyle;rounded=0;orthogonalLoop=1;jettySize=auto;html=1;exitX=0.5;exitY=0;exitDx=0;exitDy=0;entryX=0.5;entryY=1;entryDx=0;entryDy=0;entryPerimeter=0;fontSize=12;fontColor=#000000;" edge="1" parent="1" source="krKJE5jMEVTbC_TIRUub-12" target="krKJE5jMEVTbC_TIRUub-19">
          <mxGeometry relative="1" as="geometry" />
        </mxCell>
        <mxCell id="krKJE5jMEVTbC_TIRUub-44" style="edgeStyle=orthogonalEdgeStyle;rounded=0;orthogonalLoop=1;jettySize=auto;html=1;exitX=1;exitY=0.5;exitDx=0;exitDy=0;entryX=0;entryY=0.5;entryDx=0;entryDy=0;fontSize=13;fontColor=#000000;startArrow=none;startFill=0;endArrow=none;endFill=0;" edge="1" parent="1" source="krKJE5jMEVTbC_TIRUub-12" target="krKJE5jMEVTbC_TIRUub-41">
          <mxGeometry relative="1" as="geometry" />
        </mxCell>
        <mxCell id="krKJE5jMEVTbC_TIRUub-45" style="edgeStyle=orthogonalEdgeStyle;rounded=0;orthogonalLoop=1;jettySize=auto;html=1;exitX=1;exitY=0.5;exitDx=0;exitDy=0;entryX=0;entryY=0.5;entryDx=0;entryDy=0;fontSize=13;fontColor=#000000;startArrow=none;startFill=0;endArrow=none;endFill=0;" edge="1" parent="1" source="krKJE5jMEVTbC_TIRUub-12" target="krKJE5jMEVTbC_TIRUub-42">
          <mxGeometry relative="1" as="geometry" />
        </mxCell>
        <mxCell id="krKJE5jMEVTbC_TIRUub-46" style="edgeStyle=orthogonalEdgeStyle;rounded=0;orthogonalLoop=1;jettySize=auto;html=1;exitX=1;exitY=0.5;exitDx=0;exitDy=0;entryX=0;entryY=0.5;entryDx=0;entryDy=0;fontSize=13;fontColor=#000000;startArrow=none;startFill=0;endArrow=none;endFill=0;" edge="1" parent="1" source="krKJE5jMEVTbC_TIRUub-12" target="krKJE5jMEVTbC_TIRUub-43">
          <mxGeometry relative="1" as="geometry" />
        </mxCell>
        <mxCell id="krKJE5jMEVTbC_TIRUub-12" value="&lt;div style=&quot;font-family: Consolas, &amp;quot;Courier New&amp;quot;, monospace; font-size: 14px; line-height: 19px;&quot;&gt;&lt;div style=&quot;line-height: 19px;&quot;&gt;&lt;div style=&quot;line-height: 19px;&quot;&gt;std_typanalyze&lt;/div&gt;&lt;/div&gt;&lt;/div&gt;" style="rounded=1;whiteSpace=wrap;html=1;fillColor=#ffe6cc;strokeColor=#d79b00;" vertex="1" parent="1">
          <mxGeometry x="800" y="160" width="200" height="40" as="geometry" />
        </mxCell>
        <mxCell id="krKJE5jMEVTbC_TIRUub-16" style="edgeStyle=orthogonalEdgeStyle;rounded=0;orthogonalLoop=1;jettySize=auto;html=1;exitX=1;exitY=0.5;exitDx=0;exitDy=0;entryX=0;entryY=0.5;entryDx=0;entryDy=0;fontSize=12;fontColor=#000000;endArrow=none;endFill=0;dashed=1;" edge="1" parent="1" source="krKJE5jMEVTbC_TIRUub-13" target="krKJE5jMEVTbC_TIRUub-12">
          <mxGeometry relative="1" as="geometry" />
        </mxCell>
        <mxCell id="krKJE5jMEVTbC_TIRUub-34" style="edgeStyle=orthogonalEdgeStyle;rounded=0;orthogonalLoop=1;jettySize=auto;html=1;exitX=0.5;exitY=1;exitDx=0;exitDy=0;entryX=0.5;entryY=0;entryDx=0;entryDy=0;fontSize=13;fontColor=#000000;endArrow=classic;endFill=1;startArrow=none;startFill=0;" edge="1" parent="1" source="krKJE5jMEVTbC_TIRUub-13" target="krKJE5jMEVTbC_TIRUub-4">
          <mxGeometry relative="1" as="geometry" />
        </mxCell>
        <mxCell id="krKJE5jMEVTbC_TIRUub-13" value="&lt;div style=&quot;font-family: Consolas, &amp;quot;Courier New&amp;quot;, monospace; font-size: 14px; line-height: 19px;&quot;&gt;examine_attribute&lt;/div&gt;" style="rounded=1;whiteSpace=wrap;html=1;labelBackgroundColor=none;fontSize=12;fontColor=#000000;" vertex="1" parent="1">
          <mxGeometry x="520" y="160" width="200" height="40" as="geometry" />
        </mxCell>
        <mxCell id="krKJE5jMEVTbC_TIRUub-15" style="edgeStyle=orthogonalEdgeStyle;rounded=0;orthogonalLoop=1;jettySize=auto;html=1;fontSize=12;fontColor=#000000;" edge="1" parent="1" source="krKJE5jMEVTbC_TIRUub-14" target="krKJE5jMEVTbC_TIRUub-13">
          <mxGeometry relative="1" as="geometry" />
        </mxCell>
        <mxCell id="krKJE5jMEVTbC_TIRUub-14" value="&lt;div style=&quot;font-family: Consolas, &amp;quot;Courier New&amp;quot;, monospace; font-size: 14px; line-height: 19px;&quot;&gt;do_analyze_rel&lt;/div&gt;" style="rounded=1;whiteSpace=wrap;html=1;labelBackgroundColor=none;fontSize=12;fontColor=#000000;" vertex="1" parent="1">
          <mxGeometry x="520" y="80" width="200" height="40" as="geometry" />
        </mxCell>
        <mxCell id="krKJE5jMEVTbC_TIRUub-18" style="edgeStyle=orthogonalEdgeStyle;rounded=0;orthogonalLoop=1;jettySize=auto;html=1;entryX=0.5;entryY=0;entryDx=0;entryDy=0;fontSize=12;fontColor=#000000;" edge="1" parent="1" source="krKJE5jMEVTbC_TIRUub-17" target="krKJE5jMEVTbC_TIRUub-14">
          <mxGeometry relative="1" as="geometry" />
        </mxCell>
        <mxCell id="krKJE5jMEVTbC_TIRUub-28" style="edgeStyle=orthogonalEdgeStyle;rounded=0;orthogonalLoop=1;jettySize=auto;html=1;exitX=0;exitY=0.5;exitDx=0;exitDy=0;dashed=1;fontSize=13;fontColor=#000000;endArrow=none;endFill=0;" edge="1" parent="1" source="krKJE5jMEVTbC_TIRUub-17">
          <mxGeometry relative="1" as="geometry">
            <mxPoint x="480" y="20" as="targetPoint" />
          </mxGeometry>
        </mxCell>
        <mxCell id="krKJE5jMEVTbC_TIRUub-17" value="&lt;div style=&quot;font-family: Consolas, &amp;quot;Courier New&amp;quot;, monospace; font-size: 14px; line-height: 19px;&quot;&gt;analyze_rel&lt;/div&gt;" style="rounded=1;whiteSpace=wrap;html=1;labelBackgroundColor=none;fontSize=12;fillColor=#d5e8d4;strokeColor=#82b366;" vertex="1" parent="1">
          <mxGeometry x="520" width="200" height="40" as="geometry" />
        </mxCell>
        <mxCell id="krKJE5jMEVTbC_TIRUub-19" value="&lt;font style=&quot;font-size: 13px;&quot;&gt;选择统计方法：&lt;br&gt;1.&amp;nbsp; &amp;nbsp;设置&lt;span style=&quot;font-family: Consolas, &amp;quot;Courier New&amp;quot;, monospace;&quot;&gt;stats&lt;/span&gt;&lt;span style=&quot;font-family: Consolas, &amp;quot;Courier New&amp;quot;, monospace;&quot;&gt;-&amp;gt;&lt;/span&gt;&lt;span style=&quot;font-family: Consolas, &amp;quot;Courier New&amp;quot;, monospace;&quot;&gt;compute_stats&lt;br&gt;2. 设置&lt;/span&gt;&lt;span style=&quot;font-family: Consolas, &amp;quot;Courier New&amp;quot;, monospace;&quot;&gt;stats&lt;/span&gt;&lt;span style=&quot;font-family: Consolas, &amp;quot;Courier New&amp;quot;, monospace;&quot;&gt;-&amp;gt;&lt;/span&gt;&lt;span style=&quot;font-family: Consolas, &amp;quot;Courier New&amp;quot;, monospace;&quot;&gt;minrows&lt;/span&gt;&lt;/font&gt;" style="shape=note;whiteSpace=wrap;html=1;backgroundOutline=1;darkOpacity=0.05;labelBackgroundColor=none;fontSize=12;fontColor=#000000;align=left;" vertex="1" parent="1">
          <mxGeometry x="800" y="60" width="200" height="60" as="geometry" />
        </mxCell>
        <mxCell id="krKJE5jMEVTbC_TIRUub-27" value="&lt;span style=&quot;text-align: left;&quot;&gt;设置&lt;/span&gt;&lt;span style=&quot;text-align: left; font-family: Consolas, &amp;quot;Courier New&amp;quot;, monospace; font-size: 14px;&quot;&gt;acquirefunc=&lt;/span&gt;&lt;span style=&quot;text-align: left; font-family: Consolas, &amp;quot;Courier New&amp;quot;, monospace; font-size: 14px;&quot;&gt;acquire_sample_rows&lt;/span&gt;" style="shape=note;whiteSpace=wrap;html=1;backgroundOutline=1;darkOpacity=0.05;labelBackgroundColor=none;fontSize=13;fontColor=#000000;" vertex="1" parent="1">
          <mxGeometry x="200" y="-20" width="280" height="80" as="geometry" />
        </mxCell>
        <mxCell id="krKJE5jMEVTbC_TIRUub-30" style="edgeStyle=orthogonalEdgeStyle;rounded=0;orthogonalLoop=1;jettySize=auto;html=1;entryX=0;entryY=0.5;entryDx=0;entryDy=0;dashed=1;fontSize=13;fontColor=#000000;endArrow=none;endFill=0;exitX=0;exitY=0;exitDx=265;exitDy=15;exitPerimeter=0;" edge="1" parent="1" source="krKJE5jMEVTbC_TIRUub-29" target="krKJE5jMEVTbC_TIRUub-13">
          <mxGeometry relative="1" as="geometry" />
        </mxCell>
        <mxCell id="krKJE5jMEVTbC_TIRUub-29" value="&lt;span style=&quot;font-family: Consolas, &amp;quot;Courier New&amp;quot;, monospace; font-size: 14px;&quot;&gt;attr-&amp;gt;attstattarget=0不统计&lt;/span&gt;" style="shape=note;whiteSpace=wrap;html=1;backgroundOutline=1;darkOpacity=0.05;labelBackgroundColor=none;fontSize=13;fontColor=#000000;align=left;" vertex="1" parent="1">
          <mxGeometry x="200" y="165" width="280" height="40" as="geometry" />
        </mxCell>
        <mxCell id="krKJE5jMEVTbC_TIRUub-31" value="&lt;p style=&quot;font-size: 12px;&quot;&gt;数据采样&lt;/p&gt;&lt;span style=&quot;font-family: Consolas, &amp;quot;Courier New&amp;quot;, monospace; font-size: 14px; text-align: center;&quot;&gt;在analyze_rel&lt;/span&gt;&lt;span style=&quot;font-size: 12px; background-color: initial;&quot;&gt;将&lt;/span&gt;&lt;span style=&quot;font-family: Consolas, &amp;quot;Courier New&amp;quot;, monospace; font-size: 14px;&quot;&gt;acquire_sample_rows&lt;/span&gt;&lt;span style=&quot;font-size: 12px; background-color: initial;&quot;&gt;赋值给&lt;/span&gt;&lt;span style=&quot;font-size: 12px; background-color: initial; font-family: Consolas, &amp;quot;Courier New&amp;quot;, monospace;&quot;&gt;acquirefunc之后通过&lt;/span&gt;&lt;span style=&quot;font-size: 12px; background-color: initial; font-family: Consolas, &amp;quot;Courier New&amp;quot;, monospace;&quot;&gt;acquirefunc进行调用&lt;/span&gt;" style="shape=note;whiteSpace=wrap;html=1;backgroundOutline=1;darkOpacity=0.05;labelBackgroundColor=none;fontSize=13;fontColor=#000000;align=left;" vertex="1" parent="1">
          <mxGeometry x="200" y="219" width="280" height="80" as="geometry" />
        </mxCell>
        <mxCell id="krKJE5jMEVTbC_TIRUub-32" value="&lt;p style=&quot;font-size: 12px;&quot;&gt;数据统计，&lt;/p&gt;&lt;p style=&quot;font-size: 12px;&quot;&gt;&lt;span style=&quot;font-family: Consolas, &amp;quot;Courier New&amp;quot;, monospace; font-size: 14px; text-align: center;&quot;&gt;最常用的是compute_scalar_stats&lt;/span&gt;&lt;br&gt;&lt;/p&gt;" style="shape=note;whiteSpace=wrap;html=1;backgroundOutline=1;darkOpacity=0.05;labelBackgroundColor=none;fontSize=13;fontColor=#000000;align=left;" vertex="1" parent="1">
          <mxGeometry x="200" y="325" width="280" height="40" as="geometry" />
        </mxCell>
        <mxCell id="krKJE5jMEVTbC_TIRUub-35" value="&lt;div style=&quot;font-family: Consolas, &amp;quot;Courier New&amp;quot;, monospace; font-size: 14px; line-height: 19px;&quot;&gt;&lt;span style=&quot;background-color: initial;&quot;&gt;compute_scalar_stats&lt;/span&gt;&lt;br&gt;&lt;/div&gt;" style="rounded=1;whiteSpace=wrap;html=1;fillColor=#ffe6cc;strokeColor=#d79b00;" vertex="1" parent="1">
          <mxGeometry x="800" y="320" width="200" height="40" as="geometry" />
        </mxCell>
        <mxCell id="krKJE5jMEVTbC_TIRUub-37" value="&lt;div style=&quot;font-family: Consolas, &amp;quot;Courier New&amp;quot;, monospace; font-size: 14px; line-height: 19px;&quot;&gt;&lt;div style=&quot;line-height: 19px;&quot;&gt;&lt;span style=&quot;text-align: left;&quot;&gt;acquire_sample_rows&lt;/span&gt;&lt;br&gt;&lt;/div&gt;&lt;/div&gt;" style="rounded=1;whiteSpace=wrap;html=1;fillColor=#ffe6cc;strokeColor=#d79b00;" vertex="1" parent="1">
          <mxGeometry x="800" y="239" width="200" height="40" as="geometry" />
        </mxCell>
        <mxCell id="krKJE5jMEVTbC_TIRUub-39" value="&lt;b&gt;就是&lt;/b&gt;" style="text;html=1;strokeColor=none;fillColor=none;align=center;verticalAlign=middle;whiteSpace=wrap;rounded=0;labelBackgroundColor=none;fontSize=13;fontColor=#000000;" vertex="1" parent="1">
          <mxGeometry x="730" y="230" width="60" height="30" as="geometry" />
        </mxCell>
        <mxCell id="krKJE5jMEVTbC_TIRUub-40" value="&lt;b&gt;最常用&lt;/b&gt;" style="text;html=1;strokeColor=none;fillColor=none;align=center;verticalAlign=middle;whiteSpace=wrap;rounded=0;labelBackgroundColor=none;fontSize=13;fontColor=#000000;" vertex="1" parent="1">
          <mxGeometry x="730" y="310" width="60" height="30" as="geometry" />
        </mxCell>
        <mxCell id="krKJE5jMEVTbC_TIRUub-41" value="&lt;span style=&quot;font-family: Consolas, &amp;quot;Courier New&amp;quot;, monospace; font-size: 14px;&quot;&gt;compute_scalar_stats&lt;/span&gt;" style="rounded=1;whiteSpace=wrap;html=1;" vertex="1" parent="1">
          <mxGeometry x="1160" y="90" width="200" height="40" as="geometry" />
        </mxCell>
        <mxCell id="krKJE5jMEVTbC_TIRUub-42" value="&lt;div style=&quot;font-family: Consolas, &amp;quot;Courier New&amp;quot;, monospace; font-size: 14px; line-height: 19px;&quot;&gt;compute_distinct_stats&lt;/div&gt;" style="rounded=1;whiteSpace=wrap;html=1;" vertex="1" parent="1">
          <mxGeometry x="1160" y="160" width="200" height="40" as="geometry" />
        </mxCell>
        <mxCell id="krKJE5jMEVTbC_TIRUub-43" value="&lt;div style=&quot;font-family: Consolas, &amp;quot;Courier New&amp;quot;, monospace; font-size: 14px; line-height: 19px;&quot;&gt;compute_trivial_stats&lt;/div&gt;" style="rounded=1;whiteSpace=wrap;html=1;" vertex="1" parent="1">
          <mxGeometry x="1160" y="239" width="200" height="40" as="geometry" />
        </mxCell>
        <mxCell id="krKJE5jMEVTbC_TIRUub-47" value="&lt;span style=&quot;font-family: Consolas, &amp;quot;Courier New&amp;quot;, monospace; text-align: left;&quot;&gt;compute_stats可能取值&lt;/span&gt;" style="text;html=1;strokeColor=none;fillColor=none;align=center;verticalAlign=middle;whiteSpace=wrap;rounded=0;labelBackgroundColor=none;fontSize=13;fontColor=#000000;" vertex="1" parent="1">
          <mxGeometry x="1000" y="150" width="100" height="30" as="geometry" />
        </mxCell>
        <mxCell id="krKJE5jMEVTbC_TIRUub-48" value="&lt;h1&gt;PG Analyze流程&lt;/h1&gt;&lt;p&gt;L&lt;/p&gt;" style="text;html=1;strokeColor=none;fillColor=none;spacing=5;spacingTop=-20;whiteSpace=wrap;overflow=hidden;rounded=0;labelBackgroundColor=none;fontSize=13;fontColor=#000000;" vertex="1" parent="1">
          <mxGeometry x="200" y="-200" width="600" height="120" as="geometry" />
        </mxCell>
      </root>
    </mxGraphModel>
  </diagram>
</mxfile>
